<mxfile host="app.diagrams.net" modified="2021-02-28T12:14:27.128Z" agent="5.0 (Windows NT 10.0; Win64; x64) AppleWebKit/537.36 (KHTML, like Gecko) Chrome/88.0.4324.182 Safari/537.36 Edg/88.0.705.81" etag="8ucpzoulB1YnqncOwVfq" version="14.4.3" type="github">
  <diagram id="e32eP27kXgKuwYGIk1JO" name="Page-1">
    <mxGraphModel dx="1422" dy="762" grid="1" gridSize="10" guides="1" tooltips="1" connect="1" arrows="1" fold="1" page="1" pageScale="1" pageWidth="827" pageHeight="1169" math="0" shadow="0">
      <root>
        <mxCell id="0" />
        <mxCell id="1" parent="0" />
        <mxCell id="x_ZEV6mPzWl-8u_seZXj-33" style="edgeStyle=orthogonalEdgeStyle;rounded=0;orthogonalLoop=1;jettySize=auto;html=1;entryX=0;entryY=0.25;entryDx=0;entryDy=0;" edge="1" parent="1" source="x_ZEV6mPzWl-8u_seZXj-1" target="x_ZEV6mPzWl-8u_seZXj-3">
          <mxGeometry relative="1" as="geometry">
            <Array as="points">
              <mxPoint x="120" y="165" />
              <mxPoint x="120" y="165" />
            </Array>
          </mxGeometry>
        </mxCell>
        <mxCell id="x_ZEV6mPzWl-8u_seZXj-47" style="edgeStyle=orthogonalEdgeStyle;rounded=0;orthogonalLoop=1;jettySize=auto;html=1;entryX=0;entryY=0.25;entryDx=0;entryDy=0;" edge="1" parent="1" source="x_ZEV6mPzWl-8u_seZXj-1" target="x_ZEV6mPzWl-8u_seZXj-22">
          <mxGeometry relative="1" as="geometry">
            <Array as="points">
              <mxPoint x="170" y="370" />
              <mxPoint x="170" y="370" />
            </Array>
          </mxGeometry>
        </mxCell>
        <mxCell id="x_ZEV6mPzWl-8u_seZXj-1" value="" style="rounded=0;whiteSpace=wrap;html=1;" vertex="1" parent="1">
          <mxGeometry x="80" y="120" width="20" height="370" as="geometry" />
        </mxCell>
        <mxCell id="x_ZEV6mPzWl-8u_seZXj-34" style="edgeStyle=orthogonalEdgeStyle;rounded=0;orthogonalLoop=1;jettySize=auto;html=1;entryX=0;entryY=0.25;entryDx=0;entryDy=0;" edge="1" parent="1" source="x_ZEV6mPzWl-8u_seZXj-3" target="x_ZEV6mPzWl-8u_seZXj-6">
          <mxGeometry relative="1" as="geometry">
            <Array as="points">
              <mxPoint x="375" y="173" />
            </Array>
          </mxGeometry>
        </mxCell>
        <mxCell id="x_ZEV6mPzWl-8u_seZXj-37" style="edgeStyle=orthogonalEdgeStyle;rounded=0;orthogonalLoop=1;jettySize=auto;html=1;entryX=0;entryY=0.5;entryDx=0;entryDy=0;" edge="1" parent="1" source="x_ZEV6mPzWl-8u_seZXj-3" target="x_ZEV6mPzWl-8u_seZXj-18">
          <mxGeometry relative="1" as="geometry">
            <Array as="points">
              <mxPoint x="330" y="260" />
              <mxPoint x="330" y="260" />
            </Array>
          </mxGeometry>
        </mxCell>
        <mxCell id="x_ZEV6mPzWl-8u_seZXj-46" style="edgeStyle=orthogonalEdgeStyle;rounded=0;orthogonalLoop=1;jettySize=auto;html=1;entryX=1.1;entryY=0.465;entryDx=0;entryDy=0;entryPerimeter=0;" edge="1" parent="1" source="x_ZEV6mPzWl-8u_seZXj-3" target="x_ZEV6mPzWl-8u_seZXj-1">
          <mxGeometry relative="1" as="geometry">
            <Array as="points">
              <mxPoint x="195" y="290" />
              <mxPoint x="195" y="292" />
            </Array>
          </mxGeometry>
        </mxCell>
        <mxCell id="x_ZEV6mPzWl-8u_seZXj-3" value="" style="rounded=0;whiteSpace=wrap;html=1;" vertex="1" parent="1">
          <mxGeometry x="290" y="120" width="20" height="180" as="geometry" />
        </mxCell>
        <mxCell id="x_ZEV6mPzWl-8u_seZXj-5" value="Kante &quot;ad&quot; wird eingezeichnet" style="text;html=1;align=center;verticalAlign=middle;resizable=0;points=[];autosize=1;" vertex="1" parent="1">
          <mxGeometry x="105" y="130" width="170" height="20" as="geometry" />
        </mxCell>
        <mxCell id="x_ZEV6mPzWl-8u_seZXj-36" style="edgeStyle=orthogonalEdgeStyle;rounded=0;orthogonalLoop=1;jettySize=auto;html=1;exitX=0;exitY=0.75;exitDx=0;exitDy=0;entryX=1;entryY=0.433;entryDx=0;entryDy=0;entryPerimeter=0;" edge="1" parent="1" source="x_ZEV6mPzWl-8u_seZXj-6" target="x_ZEV6mPzWl-8u_seZXj-3">
          <mxGeometry relative="1" as="geometry" />
        </mxCell>
        <mxCell id="x_ZEV6mPzWl-8u_seZXj-6" value="" style="rounded=0;whiteSpace=wrap;html=1;" vertex="1" parent="1">
          <mxGeometry x="440" y="160" width="20" height="50" as="geometry" />
        </mxCell>
        <mxCell id="x_ZEV6mPzWl-8u_seZXj-14" value="korrekteKante?" style="text;html=1;align=center;verticalAlign=middle;resizable=0;points=[];autosize=1;" vertex="1" parent="1">
          <mxGeometry x="330" y="150" width="100" height="20" as="geometry" />
        </mxCell>
        <mxCell id="x_ZEV6mPzWl-8u_seZXj-15" value="falsch" style="text;html=1;align=center;verticalAlign=middle;resizable=0;points=[];autosize=1;" vertex="1" parent="1">
          <mxGeometry x="355" y="200" width="50" height="20" as="geometry" />
        </mxCell>
        <mxCell id="x_ZEV6mPzWl-8u_seZXj-17" value="loseLife" style="text;html=1;align=center;verticalAlign=middle;resizable=0;points=[];autosize=1;" vertex="1" parent="1">
          <mxGeometry x="350" y="235" width="60" height="20" as="geometry" />
        </mxCell>
        <mxCell id="x_ZEV6mPzWl-8u_seZXj-43" style="edgeStyle=orthogonalEdgeStyle;rounded=0;orthogonalLoop=1;jettySize=auto;html=1;entryX=0;entryY=0.25;entryDx=0;entryDy=0;" edge="1" parent="1" source="x_ZEV6mPzWl-8u_seZXj-18" target="x_ZEV6mPzWl-8u_seZXj-30">
          <mxGeometry relative="1" as="geometry" />
        </mxCell>
        <mxCell id="x_ZEV6mPzWl-8u_seZXj-18" value="" style="rounded=0;whiteSpace=wrap;html=1;" vertex="1" parent="1">
          <mxGeometry x="440" y="250" width="20" height="20" as="geometry" />
        </mxCell>
        <mxCell id="x_ZEV6mPzWl-8u_seZXj-20" value="wrongAnimation" style="text;html=1;align=center;verticalAlign=middle;resizable=0;points=[];autosize=1;" vertex="1" parent="1">
          <mxGeometry x="140" y="270" width="100" height="20" as="geometry" />
        </mxCell>
        <mxCell id="x_ZEV6mPzWl-8u_seZXj-21" value="Kante &quot;bc&quot; wird eingezeichnet" style="text;html=1;align=center;verticalAlign=middle;resizable=0;points=[];autosize=1;" vertex="1" parent="1">
          <mxGeometry x="105" y="340" width="170" height="20" as="geometry" />
        </mxCell>
        <mxCell id="x_ZEV6mPzWl-8u_seZXj-50" style="edgeStyle=orthogonalEdgeStyle;rounded=0;orthogonalLoop=1;jettySize=auto;html=1;entryX=0;entryY=0.25;entryDx=0;entryDy=0;" edge="1" parent="1" source="x_ZEV6mPzWl-8u_seZXj-22" target="x_ZEV6mPzWl-8u_seZXj-26">
          <mxGeometry relative="1" as="geometry">
            <Array as="points">
              <mxPoint x="375" y="363" />
            </Array>
          </mxGeometry>
        </mxCell>
        <mxCell id="x_ZEV6mPzWl-8u_seZXj-52" style="edgeStyle=orthogonalEdgeStyle;rounded=0;orthogonalLoop=1;jettySize=auto;html=1;entryX=0;entryY=0.5;entryDx=0;entryDy=0;" edge="1" parent="1" source="x_ZEV6mPzWl-8u_seZXj-22" target="x_ZEV6mPzWl-8u_seZXj-27">
          <mxGeometry relative="1" as="geometry">
            <Array as="points">
              <mxPoint x="320" y="450" />
              <mxPoint x="320" y="450" />
            </Array>
          </mxGeometry>
        </mxCell>
        <mxCell id="x_ZEV6mPzWl-8u_seZXj-57" style="edgeStyle=orthogonalEdgeStyle;rounded=0;orthogonalLoop=1;jettySize=auto;html=1;entryX=1.1;entryY=0.984;entryDx=0;entryDy=0;entryPerimeter=0;" edge="1" parent="1" source="x_ZEV6mPzWl-8u_seZXj-22" target="x_ZEV6mPzWl-8u_seZXj-1">
          <mxGeometry relative="1" as="geometry">
            <Array as="points">
              <mxPoint x="260" y="484" />
              <mxPoint x="260" y="484" />
            </Array>
          </mxGeometry>
        </mxCell>
        <mxCell id="x_ZEV6mPzWl-8u_seZXj-22" value="" style="rounded=0;whiteSpace=wrap;html=1;" vertex="1" parent="1">
          <mxGeometry x="290" y="330" width="20" height="160" as="geometry" />
        </mxCell>
        <mxCell id="x_ZEV6mPzWl-8u_seZXj-23" value="korrekteKante?" style="text;html=1;align=center;verticalAlign=middle;resizable=0;points=[];autosize=1;" vertex="1" parent="1">
          <mxGeometry x="330" y="340" width="100" height="20" as="geometry" />
        </mxCell>
        <mxCell id="x_ZEV6mPzWl-8u_seZXj-24" value="korrekt" style="text;html=1;align=center;verticalAlign=middle;resizable=0;points=[];autosize=1;" vertex="1" parent="1">
          <mxGeometry x="355" y="390" width="50" height="20" as="geometry" />
        </mxCell>
        <mxCell id="x_ZEV6mPzWl-8u_seZXj-25" value="correctGuess ++" style="text;html=1;align=center;verticalAlign=middle;resizable=0;points=[];autosize=1;" vertex="1" parent="1">
          <mxGeometry x="330" y="430" width="100" height="20" as="geometry" />
        </mxCell>
        <mxCell id="x_ZEV6mPzWl-8u_seZXj-51" style="edgeStyle=orthogonalEdgeStyle;rounded=0;orthogonalLoop=1;jettySize=auto;html=1;entryX=1;entryY=0.344;entryDx=0;entryDy=0;entryPerimeter=0;" edge="1" parent="1" source="x_ZEV6mPzWl-8u_seZXj-26" target="x_ZEV6mPzWl-8u_seZXj-22">
          <mxGeometry relative="1" as="geometry">
            <Array as="points">
              <mxPoint x="410" y="385" />
              <mxPoint x="410" y="385" />
            </Array>
          </mxGeometry>
        </mxCell>
        <mxCell id="x_ZEV6mPzWl-8u_seZXj-26" value="" style="rounded=0;whiteSpace=wrap;html=1;" vertex="1" parent="1">
          <mxGeometry x="440" y="350" width="20" height="50" as="geometry" />
        </mxCell>
        <mxCell id="x_ZEV6mPzWl-8u_seZXj-53" style="edgeStyle=orthogonalEdgeStyle;rounded=0;orthogonalLoop=1;jettySize=auto;html=1;entryX=0;entryY=0.25;entryDx=0;entryDy=0;" edge="1" parent="1" source="x_ZEV6mPzWl-8u_seZXj-27" target="x_ZEV6mPzWl-8u_seZXj-32">
          <mxGeometry relative="1" as="geometry" />
        </mxCell>
        <mxCell id="x_ZEV6mPzWl-8u_seZXj-27" value="" style="rounded=0;whiteSpace=wrap;html=1;" vertex="1" parent="1">
          <mxGeometry x="440" y="440" width="20" height="20" as="geometry" />
        </mxCell>
        <mxCell id="x_ZEV6mPzWl-8u_seZXj-28" value="Kante &quot;bc&quot; bleibt sichtbar" style="text;html=1;align=center;verticalAlign=middle;resizable=0;points=[];autosize=1;" vertex="1" parent="1">
          <mxGeometry x="115" y="460" width="150" height="20" as="geometry" />
        </mxCell>
        <mxCell id="x_ZEV6mPzWl-8u_seZXj-29" value="verloren?" style="text;html=1;align=center;verticalAlign=middle;resizable=0;points=[];autosize=1;" vertex="1" parent="1">
          <mxGeometry x="500" y="230" width="70" height="20" as="geometry" />
        </mxCell>
        <mxCell id="x_ZEV6mPzWl-8u_seZXj-44" style="edgeStyle=orthogonalEdgeStyle;rounded=0;orthogonalLoop=1;jettySize=auto;html=1;entryX=1.05;entryY=0.894;entryDx=0;entryDy=0;entryPerimeter=0;" edge="1" parent="1" source="x_ZEV6mPzWl-8u_seZXj-30" target="x_ZEV6mPzWl-8u_seZXj-3">
          <mxGeometry relative="1" as="geometry">
            <mxPoint x="320" y="280" as="targetPoint" />
          </mxGeometry>
        </mxCell>
        <mxCell id="x_ZEV6mPzWl-8u_seZXj-30" value="" style="rounded=0;whiteSpace=wrap;html=1;" vertex="1" parent="1">
          <mxGeometry x="600" y="255" width="20" height="50" as="geometry" />
        </mxCell>
        <mxCell id="x_ZEV6mPzWl-8u_seZXj-31" value="gewonnen?" style="text;html=1;align=center;verticalAlign=middle;resizable=0;points=[];autosize=1;" vertex="1" parent="1">
          <mxGeometry x="495" y="420" width="80" height="20" as="geometry" />
        </mxCell>
        <mxCell id="x_ZEV6mPzWl-8u_seZXj-54" style="edgeStyle=orthogonalEdgeStyle;rounded=0;orthogonalLoop=1;jettySize=auto;html=1;entryX=1.1;entryY=0.925;entryDx=0;entryDy=0;entryPerimeter=0;" edge="1" parent="1" source="x_ZEV6mPzWl-8u_seZXj-32" target="x_ZEV6mPzWl-8u_seZXj-22">
          <mxGeometry relative="1" as="geometry">
            <Array as="points">
              <mxPoint x="550" y="478" />
              <mxPoint x="550" y="478" />
            </Array>
          </mxGeometry>
        </mxCell>
        <mxCell id="x_ZEV6mPzWl-8u_seZXj-32" value="" style="rounded=0;whiteSpace=wrap;html=1;" vertex="1" parent="1">
          <mxGeometry x="590" y="440" width="20" height="50" as="geometry" />
        </mxCell>
        <mxCell id="x_ZEV6mPzWl-8u_seZXj-45" value="nein" style="text;html=1;align=center;verticalAlign=middle;resizable=0;points=[];autosize=1;" vertex="1" parent="1">
          <mxGeometry x="430" y="280" width="40" height="20" as="geometry" />
        </mxCell>
        <mxCell id="x_ZEV6mPzWl-8u_seZXj-55" value="nein" style="text;html=1;align=center;verticalAlign=middle;resizable=0;points=[];autosize=1;" vertex="1" parent="1">
          <mxGeometry x="430" y="480" width="40" height="20" as="geometry" />
        </mxCell>
        <mxCell id="x_ZEV6mPzWl-8u_seZXj-58" value="Webbrowser/ Frontend" style="rounded=0;whiteSpace=wrap;html=1;" vertex="1" parent="1">
          <mxGeometry x="40" y="70" width="100" height="30" as="geometry" />
        </mxCell>
        <mxCell id="x_ZEV6mPzWl-8u_seZXj-59" value="Graph" style="rounded=0;whiteSpace=wrap;html=1;" vertex="1" parent="1">
          <mxGeometry x="250" y="70" width="100" height="30" as="geometry" />
        </mxCell>
        <mxCell id="x_ZEV6mPzWl-8u_seZXj-60" value="Spiellogik" style="rounded=0;whiteSpace=wrap;html=1;" vertex="1" parent="1">
          <mxGeometry x="430" y="70" width="220" height="30" as="geometry" />
        </mxCell>
      </root>
    </mxGraphModel>
  </diagram>
</mxfile>
